<?xml version="1.0" standalone="no"?>
<!DOCTYPE svg PUBLIC "-//W3C//DTD SVG 20010904//EN"
 "http://www.w3.org/TR/2001/REC-SVG-20010904/DTD/svg10.dtd">
<svg version="1.0" xmlns="http://www.w3.org/2000/svg"
 width="512.000000pt" height="512.000000pt" viewBox="0 0 512.000000 512.000000"
 preserveAspectRatio="xMidYMid meet">
<metadata>
Created by potrace 1.14, written by Peter Selinger 2001-2017
</metadata>
<g transform="translate(0.000000,512.000000) scale(0.100000,-0.100000)"
fill="#000000" stroke="none">
<path d="M1636 5034 c-6 -16 -8 -243 -2 -334 2 -30 5 -107 6 -170 1 -63 6
-139 11 -169 9 -58 89 -232 123 -267 12 -12 29 -31 38 -43 39 -47 81 -5 52 51
-13 26 -17 59 -16 152 0 71 5 123 11 129 15 15 14 90 -3 222 -18 139 -34 191
-84 268 -59 91 -82 135 -82 157 0 25 -45 28 -54 4z"/>
<path d="M2134 4776 c-4 -17 0 -35 10 -51 9 -13 16 -40 16 -59 0 -19 5 -38 10
-41 6 -3 10 -23 10 -44 0 -20 5 -42 11 -48 18 -18 -1 -552 -20 -578 -5 -5 -16
-41 -26 -78 -10 -37 -22 -70 -27 -73 -4 -3 -8 -16 -8 -29 0 -13 -4 -27 -10
-30 -5 -3 -10 -22 -10 -41 0 -19 -5 -44 -12 -57 -24 -46 -26 -55 -33 -103 -6
-50 -21 -113 -35 -149 -16 -41 -42 -213 -42 -275 0 -159 27 -379 54 -439 24
-55 18 -61 -17 -16 -15 20 -55 64 -90 98 -34 34 -75 82 -90 107 -16 25 -31 47
-34 50 -3 3 -19 23 -35 44 -16 21 -41 51 -55 65 -15 14 -40 44 -56 66 -36 49
-40 53 -89 90 -22 17 -130 120 -240 231 -279 278 -367 345 -394 298 -9 -16 7
-84 20 -84 5 0 8 -11 8 -25 0 -30 57 -140 103 -199 38 -49 57 -81 57 -98 0 -7
11 -35 25 -63 13 -27 25 -58 25 -68 0 -9 4 -25 9 -35 5 -9 15 -30 22 -47 8
-16 20 -36 26 -43 7 -7 18 -32 24 -55 6 -23 17 -62 25 -87 59 -202 65 -306 48
-874 -7 -265 5 -476 32 -549 8 -20 14 -47 14 -59 0 -16 -9 -10 -41 31 -22 28
-45 51 -50 51 -10 0 -84 73 -114 112 -87 116 -201 264 -205 268 -11 11 -97
146 -103 163 -5 14 -15 17 -39 15 -44 -4 -48 -33 -14 -104 14 -30 26 -58 26
-62 0 -15 25 -62 33 -62 4 0 7 -8 7 -18 0 -10 4 -22 8 -28 4 -5 16 -34 26 -64
11 -30 22 -59 26 -65 17 -24 50 -189 50 -252 0 -23 5 -54 10 -69 14 -37 30
-139 40 -264 5 -58 14 -134 20 -170 6 -36 13 -89 16 -118 6 -52 5 -53 -15 -43
-18 10 -81 91 -81 106 0 3 -11 22 -24 43 -26 40 -66 159 -66 197 0 13 -8 33
-18 45 l-19 23 -22 -22 c-22 -22 -23 -28 -16 -100 4 -42 13 -143 21 -226 16
-177 23 -223 35 -231 5 -3 9 -16 9 -29 0 -13 5 -27 10 -30 6 -3 10 -14 10 -24
0 -54 85 -263 126 -312 8 -8 14 -21 14 -27 0 -7 5 -12 10 -12 6 0 10 -6 10
-13 0 -8 8 -21 18 -30 10 -9 28 -37 41 -62 l22 -45 216 0 216 0 -7 51 c-4 29
-10 66 -13 83 l-6 31 26 -18 c32 -21 54 -22 73 -3 20 21 18 35 -15 97 -37 68
-81 198 -81 239 l0 31 45 -31 c97 -67 198 -97 223 -67 12 14 5 84 -9 93 -5 3
-9 15 -9 28 0 12 -4 26 -9 31 -15 15 -31 153 -21 183 4 15 14 47 21 72 7 25
16 50 20 55 4 6 24 44 45 85 21 41 47 89 59 105 12 17 27 44 34 60 7 17 17 38
22 47 5 10 9 27 9 37 0 29 17 34 25 8 19 -64 33 -169 25 -194 -21 -66 -32
-143 -26 -176 7 -38 88 -188 111 -207 11 -9 22 -9 46 2 34 14 33 -1 13 156 -5
38 -1 59 16 98 12 27 25 51 29 54 3 3 19 30 35 60 16 30 41 73 55 95 42 65 50
78 64 110 28 60 37 86 37 108 0 13 5 28 10 33 6 6 13 55 16 110 3 54 9 124 13
154 l7 55 17 -39 c9 -21 17 -46 17 -55 0 -9 16 -47 35 -85 19 -39 35 -74 35
-79 0 -18 53 -127 61 -127 5 0 9 -8 9 -18 0 -10 10 -38 22 -63 31 -61 48 -110
48 -137 0 -13 5 -32 10 -42 6 -11 10 -104 10 -216 1 -126 5 -203 12 -211 21
-25 48 -15 65 24 8 21 26 63 40 93 26 55 37 90 53 165 18 83 74 221 115 280
19 28 31 49 61 105 7 14 24 37 36 51 l23 26 3 -111 c1 -61 6 -120 11 -131 17
-40 41 -202 41 -280 0 -98 20 -233 36 -239 19 -7 52 22 70 62 9 20 27 60 40
88 13 28 24 55 24 60 0 5 8 18 17 29 15 20 15 20 10 -3 -5 -23 2 -77 23 -172
6 -25 17 -76 25 -115 38 -188 39 -190 65 -190 24 0 58 43 59 76 1 9 7 29 15
45 7 16 20 44 28 63 9 18 18 29 22 23 3 -5 8 -47 12 -93 4 -68 1 -100 -16
-164 -11 -44 -23 -114 -27 -156 -4 -65 -3 -77 12 -82 24 -10 70 17 126 74 27
27 53 49 59 49 5 0 10 -17 10 -37 0 -21 6 -60 13 -88 l13 -50 130 -3 129 -3
-3 127 c-4 141 12 225 59 316 5 10 9 24 9 31 0 8 7 28 15 45 9 17 22 61 30 99
7 37 21 100 30 138 21 87 26 528 6 548 -6 6 -11 43 -11 88 0 120 -39 188 -69
122 -8 -16 -17 -36 -22 -45 -5 -10 -9 -28 -9 -41 0 -23 -36 -108 -66 -157 -14
-23 -57 -113 -91 -188 -8 -19 -17 -32 -19 -29 -3 3 0 56 6 118 6 63 14 168 16
234 3 66 9 129 14 140 5 11 11 58 14 105 11 162 17 210 31 251 8 23 15 54 15
70 0 15 5 31 10 34 6 3 10 19 10 34 0 15 4 31 8 37 5 5 14 36 21 69 15 73 40
164 52 187 5 10 9 29 9 42 0 14 5 28 10 31 6 3 10 28 10 55 0 41 -4 52 -24 65
-30 20 -51 11 -67 -28 -7 -18 -15 -34 -18 -37 -4 -3 -13 -18 -21 -35 -8 -16
-17 -32 -21 -35 -3 -3 -15 -21 -26 -40 -26 -42 -93 -109 -93 -93 0 7 5 15 10
18 6 3 10 19 10 34 0 15 6 50 14 77 14 45 28 142 28 189 0 67 -22 249 -31 258
-6 6 -11 21 -11 34 0 13 -9 42 -19 66 -11 23 -22 56 -25 72 -3 17 -13 66 -23
110 -11 52 -16 119 -16 190 4 303 2 318 -39 323 -23 3 -30 -3 -47 -37 -12 -22
-21 -50 -21 -61 0 -26 -39 -181 -49 -195 -4 -5 -15 -35 -26 -65 -52 -154 -144
-284 -276 -392 -39 -32 -73 -76 -127 -163 -21 -34 -34 -68 -52 -135 -13 -48
-19 -60 -25 -47 -8 20 7 177 25 267 20 97 24 356 6 440 -28 137 -81 316 -116
395 -50 112 -83 181 -88 185 -10 7 -30 41 -43 70 -39 91 -156 247 -276 369
-29 29 -53 56 -53 58 0 11 -146 176 -218 248 -45 44 -82 85 -82 90 0 6 -15 26
-33 45 -17 20 -40 49 -49 65 -23 42 -74 48 -84 11z"/>
<path d="M3570 4525 c-8 -9 -17 -38 -21 -63 -14 -92 -30 -178 -41 -210 -14
-48 -1 -212 19 -219 15 -6 72 52 73 75 0 7 9 31 19 55 32 68 41 117 41 213 0
78 -3 96 -23 125 -26 39 -48 47 -67 24z"/>
<path d="M4553 2788 c-21 -28 -72 -148 -98 -233 -15 -49 -31 -99 -35 -110 -10
-24 -20 -66 -27 -117 -4 -30 -1 -37 15 -42 29 -10 47 1 60 38 7 19 27 53 45
77 83 111 117 166 128 212 12 53 6 152 -13 174 -13 17 -63 17 -75 1z"/>
</g>
</svg>
