<svg xmlns="http://www.w3.org/2000/svg" version="1.0" viewBox="0 0 512 512">
  <path d="M171.848 68.573c-2.53.506-4.723 1.012-4.807 1.097-.169.168-.506.253-.844.337-.421.084-2.782 1.096-5.312 2.361-6.662 3.205-7.759 3.373-17.71 3.542-14.335.253-21.503 3.795-28.671 14.42-3.458 5.06-3.458 5.144-9.276 6.83-5.65 1.687-9.951 3.796-13.409 6.747-2.783 2.361-11.047 13.915-11.047 15.517a.845.845 0 0 1-.843.843c-.422 0-.843.422-.843.928s-.928 2.024-2.024 3.373c-2.53 3.036-5.65 11.047-5.988 15.516-.084 1.856.338 4.385.928 5.65 1.265 2.53 5.144 4.892 7.842 4.892 1.687 0 1.687.337 1.181 9.023-.675 12.902-.422 17.034 1.434 19.227.59.674.843 1.265.506 1.265-.59 0 4.638 9.782 7.842 14.757 4.385 6.578 4.638 8.012 4.638 25.636.085 14.505.253 16.95 1.687 19.733 2.024 4.048 4.385 5.65 9.023 5.988 3.71.337 7.252-1.518 10.879-5.482.674-.759 2.108-1.602 3.035-1.94 1.94-.59 2.699.422 3.374 4.554.421 2.615 1.686 5.988 3.963 10.963.928 2.109 1.94 6.83 2.277 10.541.759 7.843 3.036 12.65 7.42 15.517 2.446 1.602 3.627 1.855 7.338 1.35 3.288-.338 4.385-.254 4.385.59.084.59.506 3.288 1.096 5.987 1.096 5.65 1.434 8.77 2.108 17.878 1.265 19.058 3.795 22.684 13.999 20.492 1.686-.422 4.132-2.783 4.132-3.964 0-.506.422-.927.843-.927.506 0 .844-.506.844-1.097 0-.506.674-1.77 1.349-2.698 1.265-1.687 1.265-1.687 2.53 0 2.192 3.036 2.951 7.927 3.12 21.588.168 7.42.084 13.661-.085 13.83-.505.422-.927 4.807-1.349 13.83-.337 6.662-.253 7.168 1.771 9.023 4.3 3.964 11.722 1.687 15.095-4.554 1.94-3.626 2.108-4.47 2.361-10.962.169-2.868.422-5.313.675-5.482.169-.084 2.277 1.18 4.638 2.783 4.554 3.12 6.746 6.493 7.505 11.637.169 1.687.844 5.229 1.35 7.759.506 2.53 1.011 4.975 1.011 5.481.253 2.108 1.687 5.229 3.29 6.915 2.36 2.699 6.155 2.446 10.878-.506 3.036-1.94 4.132-2.277 4.807-1.518 1.686 2.108 2.36 8.855 2.698 26.733.169 11.215 1.855 24.792 3.626 28.84 1.855 4.3 3.205 5.566 6.662 6.24 2.952.506 3.373.338 6.578-3.12 5.566-5.987 6.072-9.023 6.24-33.647.085-21.251.085-21.504 2.024-24.203 2.193-2.951 3.964-3.963 4.723-2.782.337.506 1.77.843 3.373.843 4.385 0 7.252-3.626 9.192-11.637.253-.76.421-1.434.506-1.434.084 0 .253-.76.421-1.602.253-1.35 1.096-4.638 1.687-6.41.084-.252.421-1.939.843-3.794 1.096-4.723 1.012-4.554 1.265-5.06.084-.253.253-.675.422-1.096.084-.337.59-1.687 1.096-2.952.59-1.349 1.012-2.698 1.012-3.12 0-.927 2.445-3.373 3.289-3.373.59 0 2.951 4.47 3.457 6.325.085.421.506 1.433.844 2.108.421.759.927 4.048 1.18 7.42.76 9.952 4.132 15.517 8.77 14.674 5.397-.928 9.108-7.505 10.71-18.721.506-3.626.76-6.156 1.687-13.914 1.77-15.095 3.71-20.83 5.903-17.288.759 1.18 4.638.338 5.818-1.265.59-.759 1.603-3.204 2.446-5.312.759-2.193 3.457-6.24 5.987-9.108 4.132-4.554 4.891-5.06 7.253-4.722 1.77.253 3.12-.169 4.3-1.181 1.518-1.35 8.855-15.517 9.361-18.215.337-1.265 3.289-4.891 4.132-4.891.337 0 .675 2.192.675 4.807 0 5.397 1.012 9.529 3.036 12.565 1.012 1.518 2.108 2.024 4.469 2.024 3.795 0 6.578-2.193 9.614-7.59 2.53-4.385 3.12-6.746 3.626-14.336.253-4.891.759-7.927 1.686-10.541.085-.506.506-1.687.844-2.783.506-1.602 1.011-1.855 3.373-1.35 2.614.422 3.036.254 4.975-2.866 1.18-1.856 2.699-5.229 3.458-7.506 1.265-3.879 1.518-4.132 4.3-4.216 8.433-.253 16.107-10.71 17.54-24.034.254-2.193.675-4.891.928-5.903.17-1.096.59-3.626.76-5.734.252-2.109 1.939-6.662 3.879-10.373 1.855-3.626 3.373-7.168 3.373-7.842 0-.675.337-1.181.759-1.181.59 0 1.18-1.096 2.108-4.217.084-.253.337-.843.59-1.264.338-.506.76-2.024 1.096-3.374.253-1.433.675-3.71 1.012-5.06.253-1.433.59-8.6.76-16.022.084-7.42.59-14.673 1.096-16.107 1.433-4.47.59-21.25-1.35-25.636-4.047-9.445-5.397-11.89-7.758-14.504-1.433-1.518-4.048-5.229-5.903-8.265-4.807-8.18-9.107-12.396-14.589-14.251-2.614-.928-7.252-3.205-10.457-5.144l-5.734-3.458-8.433.253c-4.638.085-12.987-.168-18.552-.506-17.456-1.265-22.348-1.18-27.407.59-6.24 2.109-29.094 13.577-33.31 16.613-1.855 1.35-4.891 2.783-6.83 3.29-6.832 1.77-14.59 9.36-18.975 18.636-1.855 4.048-7.337 9.276-9.698 9.276-1.602 0-2.108-.759-3.204-4.554-.76-2.53-1.35-5.312-1.35-6.324 0-.928-.843-4.217-1.77-7.253-1.771-5.144-2.615-6.324-14.59-18.383-17.54-17.794-20.66-19.902-30.442-20.492-17.962-1.012-21.673-1.265-28.25-1.434-3.964-.084-9.277.253-11.806.843zm179.789 307.38c-1.265 1.602-2.614 7.42-2.614 11.216.084 1.855-.76 6.409-1.771 10.12-2.108 7.842-3.205 21.84-1.77 22.684.505.337.927 1.265.927 2.108 0 .759 1.265 2.867 2.867 4.554 2.445 2.698 3.373 3.12 5.903 2.951 4.132-.253 7-3.542 7.758-8.854 1.012-7.168.675-15.77-.843-20.155-.76-2.361-1.602-5.229-1.855-6.325-.169-1.096-.76-3.71-1.181-5.819-.422-2.108-1.012-4.722-1.18-5.734-.59-2.614-3.205-7.084-4.386-7.505-.506-.169-1.349.168-1.855.759zM287.8 442.32a101.53 101.53 0 0 0-.928 4.048c-.253 1.349-1.012 4.469-1.686 6.999-4.47 16.528-4.47 26.48.084 30.696 4.723 4.385 11.975 1.433 13.746-5.482 1.012-4.048.759-12.902-.422-14.504-.843-1.097-3.373-8.855-4.048-12.397-1.518-7.842-2.614-10.54-4.385-10.794-1.18-.168-1.94.253-2.361 1.434zm-99.677 8.517c-.422.675-.59 2.193-.253 3.373.337 1.265-.422 5.65-1.855 10.963-2.952 10.71-3.542 14.758-3.626 22.01 0 8.517 2.783 11.89 9.192 11.216 3.204-.338 4.469-1.687 5.818-6.24 1.35-4.639 1.265-6.072-.843-19.396-.169-1.181-.422-3.627-.675-5.482-.337-3.373-.759-6.072-1.77-12.65-.254-1.854-.844-3.794-1.35-4.384-1.096-1.35-3.71-1.012-4.638.59z"/>
</svg>
