<?xml version="1.0" encoding="UTF-8" standalone="no"?>
<svg
   xmlns:dc="http://purl.org/dc/elements/1.1/"
   xmlns:cc="http://creativecommons.org/ns#"
   xmlns:rdf="http://www.w3.org/1999/02/22-rdf-syntax-ns#"
   xmlns:svg="http://www.w3.org/2000/svg"
   xmlns="http://www.w3.org/2000/svg"
   height="185"
   width="800"
   xml:space="preserve"
   viewBox="0 0 800 185"
   y="0"
   x="0"
   id="Layer_1"
   version="1.1"><metadata
   id="metadata90"><rdf:RDF><cc:Work
       rdf:about=""><dc:format>image/svg+xml</dc:format><dc:type
         rdf:resource="http://purl.org/dc/dcmitype/StillImage" /><dc:title></dc:title></cc:Work></rdf:RDF></metadata><defs
   id="defs88" />
  <style
   id="style78">
    .st0{fill:#fff}
  </style>
  <path
   style="fill:#ffffff"
   id="path80"
   d="m 243.2,78.2 11.9,-38.6 h 15.6 l 11.8,38.6 13.3,-38.6 H 312 l -23.4,67.1 H 277.5 L 262.8,60 248.2,106.7 H 237.1 L 213.7,39.6 h 16.2 z m 76.9,-38.6 h 15 v 67.1 h -15 z m 31.5,0 h 15 v 27.6 l 25.3,-27.6 h 18.5 l -26.7,29.7 c 2.3,3.2 6.6,9.2 12.8,17.9 6.2,8.7 10.8,15.2 13.9,19.5 h -17.5 l -19.7,-26.5 -6.7,7.5 v 19 h -15 V 39.6 Z m 68.1,0 h 15 v 67.1 h -15 z m 91.6,24.9 -18.1,36.7 h -8.9 l -18,-36.7 v 42.2 h -15 V 39.6 h 20.3 l 17.3,36.9 17.4,-36.9 h 20.2 v 67.1 h -15 V 64.5 Z m 79.9,-24.9 v 13.3 h -33.4 v 13.9 h 30 v 12.8 h -30 v 13.9 h 34.5 v 13.2 H 542.9 V 39.6 Z m 65.6,8.8 c 6.4,5.9 9.6,14 9.6,24.4 0,10.4 -3.1,18.7 -9.4,24.8 -6.2,6.1 -15.8,9.1 -28.6,9.1 H 605.5 V 39.6 h 23.7 c 12.1,0 21.2,3 27.6,8.8 z m -10.9,39.9 c 3.7,-3.5 5.5,-8.5 5.5,-15.1 0,-6.6 -1.8,-11.7 -5.5,-15.2 -3.7,-3.6 -9.3,-5.3 -16.9,-5.3 h -8.4 v 40.8 h 9.5 c 6.8,0 12.1,-1.7 15.8,-5.2 z m 33.5,-48.7 h 15 v 67.1 h -15 z m 79.3,67.1 -6.2,-14.5 h -28.1 l -6.2,14.5 h -15.9 l 29,-67.1 h 14.5 l 29,67.1 z M 738.4,59.6 730,79.1 h 16.8 z M 241,137.2 v 8.1 h 13 v 4.6 H 241 V 162 h -5 v -29.4 h 19.6 v 4.6 z m 70.2,20.6 c -3,2.9 -6.6,4.3 -11,4.3 -4.4,0 -8,-1.4 -11,-4.3 -3,-2.9 -4.5,-6.5 -4.5,-10.8 0,-4.3 1.5,-7.9 4.5,-10.8 3,-2.9 6.6,-4.3 11,-4.3 4.4,0 8,1.4 11,4.3 3,2.9 4.5,6.5 4.5,10.8 0,4.3 -1.5,7.9 -4.5,10.8 z m -3.6,-18.3 c -2,-2.1 -4.5,-3.1 -7.4,-3.1 -2.9,0 -5.4,1 -7.4,3.1 -2,2.1 -3,4.6 -3,7.5 0,3 1,5.5 3,7.5 2,2 4.5,3.1 7.4,3.1 2.9,0 5.4,-1 7.4,-3.1 2,-2.1 3,-4.6 3,-7.5 0,-3 -1,-5.5 -3,-7.5 z m 46.1,15.7 c 1.3,1.6 3.2,2.4 5.5,2.4 2.3,0 4.1,-0.8 5.5,-2.4 1.4,-1.6 2,-3.7 2,-6.4 v -16.3 h 5 V 149 c 0,4.2 -1.2,7.5 -3.5,9.8 -2.3,2.3 -5.3,3.4 -8.9,3.4 -3.6,0 -6.6,-1.1 -8.9,-3.4 -2.3,-2.3 -3.5,-5.5 -3.5,-9.8 v -16.5 h 5 v 16.3 c -0.2,2.7 0.5,4.8 1.8,6.4 z m 72.9,-22.7 h 5 v 29.4 h -5.4 l -16.6,-21.4 v 21.4 h -5 v -29.4 h 5 l 17.1,21.9 v -21.9 z m 60.5,3.9 c 2.8,2.6 4.2,6.1 4.2,10.7 0,4.6 -1.4,8.2 -4.1,10.8 -2.7,2.7 -6.9,4 -12.6,4 h -9.7 V 132.5 H 475 c 5.2,0 9.3,1.3 12.1,3.9 z m -0.7,10.8 c 0,-6.7 -3.9,-10.1 -11.5,-10.1 h -5 v 20.1 h 5.5 c 3.6,0 6.3,-0.8 8.2,-2.5 1.8,-1.7 2.8,-4.2 2.8,-7.5 z m 40.7,8 -2.9,6.7 h -5.3 l 12.9,-29.4 h 5.3 l 12.9,29.4 h -5.3 l -2.9,-6.7 z m 12.7,-4.6 -5.3,-12.1 -5.3,12.1 z m 48.3,-13.5 v 24.8 h -5 v -24.8 h -8.9 v -4.5 H 597 v 4.5 z m 39.5,-4.6 h 5 v 29.4 h -5 z m 62.8,25.3 c -3,2.9 -6.6,4.3 -11,4.3 -4.4,0 -8,-1.4 -11,-4.3 -3,-2.9 -4.5,-6.5 -4.5,-10.8 0,-4.3 1.5,-7.9 4.5,-10.8 3,-2.9 6.6,-4.3 11,-4.3 4.4,0 8,1.4 11,4.3 3,2.9 4.5,6.5 4.5,10.8 0,4.3 -1.5,7.9 -4.5,10.8 z m -3.6,-18.3 c -2,-2.1 -4.5,-3.1 -7.4,-3.1 -2.9,0 -5.4,1 -7.4,3.1 -2,2.1 -3,4.6 -3,7.5 0,3 1,5.5 3,7.5 2,2 4.5,3.1 7.4,3.1 2.9,0 5.4,-1 7.4,-3.1 2,-2.1 3,-4.6 3,-7.5 0,-3 -1,-5.5 -3,-7.5 z m 61.5,-7 h 5 v 29.4 h -5.4 l -16.6,-21.4 v 21.4 h -5 v -29.4 h 5 l 17.1,21.9 v -21.9 z m -640,11.7 c 25.3,-3.6 44.7,-25.3 44.7,-51.5 0,-16 -7.2,-30.2 -18.5,-39.8 l -26.2,26.2 z m -14.7,0 V 79.1 L 67.4,52.8 A 51.86,51.86 0 0 0 48.9,92.6 c 0,26.3 19.4,48 44.7,51.6 z"
   class="st0" />
  <path
   style="fill:#ffffff"
   id="path82"
   d="m 146.2,47.4 c 12.1,12.1 18.7,28.2 18.7,45.2 0,17 -6.7,33.2 -18.7,45.2 -12.1,12.1 -28.2,18.7 -45.2,18.7 -17,0 -33.2,-6.7 -45.2,-18.7 C 43.8,125.8 37,109.7 37,92.6 37,75.5 43.7,59.4 55.7,47.4 c 1,-1 2.1,-2 3.2,-3 L 44.3,29.8 c -1.1,1 -2.1,2 -3.2,3 -7.8,7.8 -13.9,16.8 -18.1,26.9 -4.4,10.4 -6.7,21.5 -6.7,32.9 0,11.4 2.2,22.5 6.7,32.9 4.3,10.1 10.4,19.1 18.1,26.9 7.8,7.8 16.8,13.9 26.9,18.1 10.4,4.4 21.5,6.7 32.9,6.7 11.4,0 22.5,-2.2 32.9,-6.7 10.1,-4.3 19.1,-10.4 26.9,-18.1 7.8,-7.8 13.9,-16.8 18.1,-26.9 4.4,-10.4 6.7,-21.5 6.7,-32.9 0,-11.4 -2.2,-22.5 -6.7,-32.9 -4.3,-10.1 -10.4,-19.1 -18.1,-26.9 -1,-1 -2.1,-2 -3.2,-3 L 143,44.4 c 1.1,0.9 2.1,1.9 3.2,3 z"
   class="st0" />
  <circle
   style="fill:#ffffff"
   r="26.4"
   cy="33.900024"
   cx="100.9"
   class="st0"
   id="red_circle_3_" />
</svg>